<svg width="24" height="41" viewBox="0 0 24 41" fill="none" xmlns="http://www.w3.org/2000/svg">
<path d="M0.996247 21.6687L18.7968 39.4689C19.2085 39.8809 19.758 40.1079 20.3441 40.1079C20.9301 40.1079 21.4797 39.8809 21.8914 39.4689L23.2022 38.1583C24.0552 37.3044 24.0552 35.9164 23.2022 35.0637L8.25472 20.1162L23.2188 5.15208C23.6305 4.74006 23.8578 4.19079 23.8578 3.6051C23.8578 3.01876 23.6305 2.4695 23.2188 2.05715L21.9079 0.746914C21.4959 0.334885 20.9466 0.107895 20.3606 0.107895C19.7746 0.107895 19.225 0.334885 18.8133 0.746914L0.996246 18.5634C0.583567 18.9767 0.356903 19.5286 0.358204 20.1152C0.356903 20.7042 0.583567 21.2557 0.996247 21.6687Z" fill="white"/>
</svg>
